<svg width="22" height="21" viewBox="0 0 22 21" fill="none" xmlns="http://www.w3.org/2000/svg">
<path d="M20.7022 11.7354C21.3439 11.7354 21.9101 11.207 21.9101 10.5238C21.9478 10.184 21.7968 9.88206 21.4949 9.61784L19.5019 7.86264V3.29534C19.5019 2.62723 18.9621 2.08746 18.294 2.08746H17.0861C16.418 2.08746 15.8782 2.62723 15.8782 3.29534V4.68063L11.8583 1.1438C11.6318 0.95507 11.3298 0.879578 11.0656 0.879578C10.8014 0.879578 10.4994 0.917324 10.2352 1.18155L0.553244 9.61784C0.28902 9.88206 0.175781 10.184 0.175781 10.5238C0.175781 11.2032 0.704229 11.7354 1.38366 11.7354H2.59154V14.3663C2.58777 14.4003 2.58777 14.4343 2.58777 14.472V18.6996C2.58777 19.5338 3.26343 20.2094 4.09762 20.2094H4.70156C4.74685 20.2094 4.79215 20.2057 4.83745 20.2019C4.89406 20.2057 4.95068 20.2094 5.0073 20.2094H7.11732C7.95151 20.2094 8.62717 19.5338 8.62717 18.6996V15.3779C8.62717 14.7098 9.16694 14.17 9.83505 14.17H12.2508C12.9189 14.17 13.4587 14.7098 13.4587 15.3779V18.6996C13.4587 19.5338 14.1343 20.2094 14.9685 20.2094H17.1012C17.1541 20.2094 17.2069 20.2094 17.2597 20.2057C17.3013 20.2094 17.3428 20.2094 17.3843 20.2094H17.9882C18.8224 20.2094 19.4981 19.5338 19.4981 18.6996V18.0881C19.5094 17.99 19.517 17.888 19.517 17.7824L19.4905 11.7354H20.6984H20.7022Z" fill="#43360A"/>
</svg>
