<svg width="17" height="17" viewBox="0 0 17 17" fill="none" xmlns="http://www.w3.org/2000/svg">
<path d="M15.15 16.375L9.6375 10.8625C9.2 11.2125 8.69687 11.4896 8.12813 11.6937C7.55938 11.8979 6.95417 12 6.3125 12C4.72292 12 3.37775 11.4493 2.277 10.348C1.17625 9.24667 0.625584 7.9015 0.625 6.3125C0.624417 4.7235 1.17508 3.37833 2.277 2.277C3.37892 1.17567 4.72408 0.625 6.3125 0.625C7.90092 0.625 9.24638 1.17567 10.3489 2.277C11.4514 3.37833 12.0017 4.7235 12 6.3125C12 6.95417 11.8979 7.55937 11.6937 8.12812C11.4896 8.69687 11.2125 9.2 10.8625 9.6375L16.375 15.15L15.15 16.375ZM6.3125 10.25C7.40625 10.25 8.33608 9.86733 9.102 9.102C9.86792 8.33667 10.2506 7.40683 10.25 6.3125C10.2494 5.21817 9.86675 4.28863 9.102 3.52387C8.33725 2.75912 7.40742 2.37617 6.3125 2.375C5.21758 2.37383 4.28804 2.75679 3.52388 3.52387C2.75971 4.29096 2.37675 5.2205 2.375 6.3125C2.37325 7.4045 2.75621 8.33433 3.52388 9.102C4.29154 9.86967 5.22108 10.2523 6.3125 10.25Z" fill="#FFCA1A"/>
</svg>
