<svg width="22" height="23" viewBox="0 0 22 23" fill="none" xmlns="http://www.w3.org/2000/svg">
<path d="M17.2124 13.6903C16.952 13.6487 15.952 13.357 15.6916 13.2424L13.5353 19.9924L10.3166 18.8153L12.6083 12.8049L9.43117 9.19033L12.0874 7.66949C12.5562 8.84658 13.3062 9.83616 14.2958 10.6487C15.2853 11.4612 16.4208 11.9716 17.6916 12.1695L18.8583 8.59658L17.3583 8.10699L16.8166 9.77366C16.1291 9.48199 15.5249 9.04449 15.0041 8.48199C14.4833 7.90908 14.1083 7.24241 13.8791 6.49241L13.5353 5.36741C13.4103 4.95074 13.1708 4.61741 12.827 4.36741C12.4833 4.12783 12.0874 3.98199 11.702 3.95074C11.2958 3.91949 10.8999 3.98199 10.5249 4.20074L6.87909 6.30491C6.49367 6.52366 6.21242 6.83616 6.03534 7.23199C5.83742 7.62783 5.79576 8.02366 5.83742 8.45074C5.87909 8.87783 6.10826 9.25283 6.39992 9.57574L10.1187 13.4403L8.35826 18.0862L1.11867 15.4924L0.629089 16.9612L15.2541 22.2945C16.0666 22.5862 16.9312 22.732 17.8478 22.732C18.4937 22.732 19.1291 22.6487 19.7541 22.4924C20.3687 22.3257 20.9416 22.0966 21.4624 21.8049L20.2853 20.6487C19.5041 20.9924 18.6916 21.1695 17.8478 21.1695C17.1603 21.1695 16.4728 21.0549 15.7853 20.8257L15.0041 20.5341L17.2124 13.6903ZM18.3374 2.94033C18.3374 4.09658 17.4103 5.02366 16.2541 5.02366C15.0978 5.02366 14.1708 4.09658 14.1708 2.94033C14.1708 1.78408 15.1083 0.856995 16.2541 0.856995C17.3999 0.856995 18.3374 1.79449 18.3374 2.94033Z" fill="#43360A"/>
</svg>
