<svg width="28" height="21" viewBox="0 0 28 21" fill="none" xmlns="http://www.w3.org/2000/svg">
<path d="M18.793 0.876465C18.5894 0.876465 18.0021 1.14374 18.0021 1.14374L11.9621 4.19828C11.1567 4.51646 10.8385 5.8001 11.3221 6.44192L13.0858 9.00192L5.86758 12.691L9.5003 15.4183L14.0494 12.691L18.5949 15.4183L20.4167 13.5965L14.9621 6.32374L19.6112 3.54192C20.5712 3.05828 20.4167 2.26192 20.4167 1.77828C20.4094 1.39646 19.7621 0.876465 18.793 0.876465ZM22.6858 6.33101C22.2678 6.33065 21.8539 6.41262 21.4676 6.57224C21.0813 6.73185 20.7302 6.96599 20.4344 7.26128C20.1386 7.55657 19.9039 7.90723 19.7436 8.29324C19.5833 8.67925 19.5007 9.09305 19.5003 9.51101C19.4999 9.92897 19.5819 10.3429 19.7415 10.7292C19.9011 11.1155 20.1353 11.4665 20.4306 11.7623C20.7259 12.0581 21.0765 12.2929 21.4625 12.4532C21.8485 12.6134 22.2623 12.6961 22.6803 12.6965C23.5244 12.6972 24.3342 12.3626 24.9316 11.7662C25.529 11.1698 25.865 10.3606 25.8658 9.51647C25.8665 8.67235 25.5319 7.86253 24.9355 7.26514C24.3391 6.66775 23.5299 6.33173 22.6858 6.33101ZM4.95485 15.4219L0.409393 18.1492V20.8765L4.95485 18.1492L9.5003 20.8765L14.0494 18.1492L18.5949 20.8765L22.2276 18.1492L27.6821 20.8765V18.1492L22.2276 15.4219L18.5949 18.1492L14.0494 15.4219L9.5003 18.1492L4.95485 15.4219Z" fill="#43360A"/>
</svg>
