<svg width="26" height="17" viewBox="0 0 26 17" fill="none" xmlns="http://www.w3.org/2000/svg">
<path d="M25.4784 15.4105L19.2284 1.34802C19.167 1.20995 19.0669 1.09264 18.9402 1.01031C18.8135 0.927978 18.6656 0.884157 18.5145 0.884155H7.57702C7.42591 0.884157 7.27805 0.927978 7.15135 1.01031C7.02465 1.09264 6.92454 1.20995 6.86315 1.34802V1.35974L0.61315 15.4105C0.560268 15.5295 0.537945 15.6597 0.548209 15.7895C0.558474 15.9193 0.601001 16.0444 0.671926 16.1536C0.742851 16.2627 0.839926 16.3524 0.954332 16.4145C1.06874 16.4766 1.19685 16.5092 1.32702 16.5092H24.7645C24.8947 16.5092 25.0228 16.4766 25.1372 16.4145C25.2516 16.3524 25.3487 16.2627 25.4196 16.1536C25.4905 16.0444 25.5331 15.9193 25.5433 15.7895C25.5536 15.6597 25.5313 15.5295 25.4784 15.4105ZM6.79577 14.9467H2.52917L6.79577 5.34705V14.9467ZM8.35827 14.9467V5.34705L12.6249 14.9467H8.35827Z" fill="#43360A"/>
</svg>
