<svg width="22" height="22" viewBox="0 0 22 22" fill="none" xmlns="http://www.w3.org/2000/svg">
<path fill-rule="evenodd" clip-rule="evenodd" d="M6.05074 0.157715C6.27175 0.157715 6.48372 0.245512 6.64 0.401792C6.79628 0.558073 6.88407 0.770034 6.88407 0.991048V1.82438H15.2174V0.991048C15.2174 0.770034 15.3052 0.558073 15.4615 0.401792C15.6178 0.245512 15.8297 0.157715 16.0507 0.157715C16.2718 0.157715 16.4837 0.245512 16.64 0.401792C16.7963 0.558073 16.8841 0.770034 16.8841 0.991048V1.82438H19.3841C20.0471 1.82438 20.683 2.08777 21.1518 2.55661C21.6207 3.02546 21.8841 3.66134 21.8841 4.32438V19.3244C21.8841 19.9874 21.6207 20.6233 21.1518 21.0921C20.683 21.561 20.0471 21.8244 19.3841 21.8244H2.71741C2.05437 21.8244 1.41848 21.561 0.94964 21.0921C0.480799 20.6233 0.217407 19.9874 0.217407 19.3244V4.32438C0.217407 3.66134 0.480799 3.02546 0.94964 2.55661C1.41848 2.08777 2.05437 1.82438 2.71741 1.82438H5.21741V0.991048C5.21741 0.770034 5.3052 0.558073 5.46148 0.401792C5.61777 0.245512 5.82973 0.157715 6.05074 0.157715ZM15.2174 3.49105V4.32438C15.2174 4.54539 15.3052 4.75736 15.4615 4.91364C15.6178 5.06992 15.8297 5.15771 16.0507 5.15771C16.2718 5.15771 16.4837 5.06992 16.64 4.91364C16.7963 4.75736 16.8841 4.54539 16.8841 4.32438V3.49105H19.3841C19.6051 3.49105 19.817 3.57885 19.9733 3.73513C20.1296 3.89141 20.2174 4.10337 20.2174 4.32438V6.82438H1.88407V4.32438C1.88407 4.10337 1.97187 3.89141 2.12815 3.73513C2.28443 3.57885 2.49639 3.49105 2.71741 3.49105H5.21741V4.32438C5.21741 4.54539 5.3052 4.75736 5.46148 4.91364C5.61777 5.06992 5.82973 5.15771 6.05074 5.15771C6.27175 5.15771 6.48372 5.06992 6.64 4.91364C6.79628 4.75736 6.88407 4.54539 6.88407 4.32438V3.49105H15.2174ZM1.88407 8.49105V19.3244C1.88407 19.5454 1.97187 19.7574 2.12815 19.9136C2.28443 20.0699 2.49639 20.1577 2.71741 20.1577H19.3841C19.6051 20.1577 19.817 20.0699 19.9733 19.9136C20.1296 19.7574 20.2174 19.5454 20.2174 19.3244V8.49105H1.88407ZM10.2174 10.991C10.2174 10.77 10.3052 10.5581 10.4615 10.4018C10.6178 10.2455 10.8297 10.1577 11.0507 10.1577C11.2718 10.1577 11.4837 10.2455 11.64 10.4018C11.7963 10.5581 11.8841 10.77 11.8841 10.991C11.8841 11.2121 11.7963 11.424 11.64 11.5803C11.4837 11.7366 11.2718 11.8244 11.0507 11.8244C10.8297 11.8244 10.6178 11.7366 10.4615 11.5803C10.3052 11.424 10.2174 11.2121 10.2174 10.991ZM14.3841 10.1577C14.1631 10.1577 13.9511 10.2455 13.7948 10.4018C13.6385 10.5581 13.5507 10.77 13.5507 10.991C13.5507 11.2121 13.6385 11.424 13.7948 11.5803C13.9511 11.7366 14.1631 11.8244 14.3841 11.8244C14.6051 11.8244 14.817 11.7366 14.9733 11.5803C15.1296 11.424 15.2174 11.2121 15.2174 10.991C15.2174 10.77 15.1296 10.5581 14.9733 10.4018C14.817 10.2455 14.6051 10.1577 14.3841 10.1577ZM16.8841 10.991C16.8841 10.77 16.9719 10.5581 17.1282 10.4018C17.2844 10.2455 17.4964 10.1577 17.7174 10.1577C17.9384 10.1577 18.1504 10.2455 18.3067 10.4018C18.4629 10.5581 18.5507 10.77 18.5507 10.991C18.5507 11.2121 18.4629 11.424 18.3067 11.5803C18.1504 11.7366 17.9384 11.8244 17.7174 11.8244C17.4964 11.8244 17.2844 11.7366 17.1282 11.5803C16.9719 11.424 16.8841 11.2121 16.8841 10.991ZM17.7174 13.491C17.4964 13.491 17.2844 13.5788 17.1282 13.7351C16.9719 13.8914 16.8841 14.1034 16.8841 14.3244C16.8841 14.5454 16.9719 14.7574 17.1282 14.9136C17.2844 15.0699 17.4964 15.1577 17.7174 15.1577C17.9384 15.1577 18.1504 15.0699 18.3067 14.9136C18.4629 14.7574 18.5507 14.5454 18.5507 14.3244C18.5507 14.1034 18.4629 13.8914 18.3067 13.7351C18.1504 13.5788 17.9384 13.491 17.7174 13.491ZM13.5507 14.3244C13.5507 14.1034 13.6385 13.8914 13.7948 13.7351C13.9511 13.5788 14.1631 13.491 14.3841 13.491C14.6051 13.491 14.817 13.5788 14.9733 13.7351C15.1296 13.8914 15.2174 14.1034 15.2174 14.3244C15.2174 14.5454 15.1296 14.7574 14.9733 14.9136C14.817 15.0699 14.6051 15.1577 14.3841 15.1577C14.1631 15.1577 13.9511 15.0699 13.7948 14.9136C13.6385 14.7574 13.5507 14.5454 13.5507 14.3244ZM11.0507 13.491C10.8297 13.491 10.6178 13.5788 10.4615 13.7351C10.3052 13.8914 10.2174 14.1034 10.2174 14.3244C10.2174 14.5454 10.3052 14.7574 10.4615 14.9136C10.6178 15.0699 10.8297 15.1577 11.0507 15.1577C11.2718 15.1577 11.4837 15.0699 11.64 14.9136C11.7963 14.7574 11.8841 14.5454 11.8841 14.3244C11.8841 14.1034 11.7963 13.8914 11.64 13.7351C11.4837 13.5788 11.2718 13.491 11.0507 13.491ZM6.88407 14.3244C6.88407 14.1034 6.97187 13.8914 7.12815 13.7351C7.28443 13.5788 7.49639 13.491 7.71741 13.491C7.93842 13.491 8.15038 13.5788 8.30666 13.7351C8.46294 13.8914 8.55074 14.1034 8.55074 14.3244C8.55074 14.5454 8.46294 14.7574 8.30666 14.9136C8.15038 15.0699 7.93842 15.1577 7.71741 15.1577C7.49639 15.1577 7.28443 15.0699 7.12815 14.9136C6.97187 14.7574 6.88407 14.5454 6.88407 14.3244ZM4.38407 13.491C4.16306 13.491 3.9511 13.5788 3.79482 13.7351C3.63854 13.8914 3.55074 14.1034 3.55074 14.3244C3.55074 14.5454 3.63854 14.7574 3.79482 14.9136C3.9511 15.0699 4.16306 15.1577 4.38407 15.1577C4.60509 15.1577 4.81705 15.0699 4.97333 14.9136C5.12961 14.7574 5.21741 14.5454 5.21741 14.3244C5.21741 14.1034 5.12961 13.8914 4.97333 13.7351C4.81705 13.5788 4.60509 13.491 4.38407 13.491ZM3.55074 17.6577C3.55074 17.4367 3.63854 17.2247 3.79482 17.0685C3.9511 16.9122 4.16306 16.8244 4.38407 16.8244C4.60509 16.8244 4.81705 16.9122 4.97333 17.0685C5.12961 17.2247 5.21741 17.4367 5.21741 17.6577C5.21741 17.8787 5.12961 18.0907 4.97333 18.247C4.81705 18.4033 4.60509 18.491 4.38407 18.491C4.16306 18.491 3.9511 18.4033 3.79482 18.247C3.63854 18.0907 3.55074 17.8787 3.55074 17.6577ZM7.71741 16.8244C7.49639 16.8244 7.28443 16.9122 7.12815 17.0685C6.97187 17.2247 6.88407 17.4367 6.88407 17.6577C6.88407 17.8787 6.97187 18.0907 7.12815 18.247C7.28443 18.4033 7.49639 18.491 7.71741 18.491C7.93842 18.491 8.15038 18.4033 8.30666 18.247C8.46294 18.0907 8.55074 17.8787 8.55074 17.6577C8.55074 17.4367 8.46294 17.2247 8.30666 17.0685C8.15038 16.9122 7.93842 16.8244 7.71741 16.8244ZM10.2174 17.6577C10.2174 17.4367 10.3052 17.2247 10.4615 17.0685C10.6178 16.9122 10.8297 16.8244 11.0507 16.8244C11.2718 16.8244 11.4837 16.9122 11.64 17.0685C11.7963 17.2247 11.8841 17.4367 11.8841 17.6577C11.8841 17.8787 11.7963 18.0907 11.64 18.247C11.4837 18.4033 11.2718 18.491 11.0507 18.491C10.8297 18.491 10.6178 18.4033 10.4615 18.247C10.3052 18.0907 10.2174 17.8787 10.2174 17.6577ZM14.3841 16.8244C14.1631 16.8244 13.9511 16.9122 13.7948 17.0685C13.6385 17.2247 13.5507 17.4367 13.5507 17.6577C13.5507 17.8787 13.6385 18.0907 13.7948 18.247C13.9511 18.4033 14.1631 18.491 14.3841 18.491C14.6051 18.491 14.817 18.4033 14.9733 18.247C15.1296 18.0907 15.2174 17.8787 15.2174 17.6577C15.2174 17.4367 15.1296 17.2247 14.9733 17.0685C14.817 16.9122 14.6051 16.8244 14.3841 16.8244Z" fill="#43360A"/>
</svg>
