<svg width="21" height="13" viewBox="0 0 21 13" fill="none" xmlns="http://www.w3.org/2000/svg">
<path d="M0.478716 0.922747C0.774541 0.627012 1.17571 0.460876 1.59401 0.460876C2.01231 0.460876 2.41348 0.627012 2.7093 0.922747L10.5179 8.73137L18.3266 0.922747C18.6241 0.635393 19.0226 0.476389 19.4362 0.479983C19.8498 0.483578 20.2454 0.649482 20.5379 0.941963C20.8304 1.23444 20.9963 1.6301 20.9999 2.04372C21.0035 2.45733 20.8445 2.85581 20.5571 3.15333L11.6332 12.0772C11.3374 12.373 10.9362 12.5391 10.5179 12.5391C10.0996 12.5391 9.69846 12.373 9.40263 12.0772L0.478716 3.15333C0.182981 2.85751 0.0168457 2.45634 0.0168457 2.03804C0.0168457 1.61974 0.182981 1.21857 0.478716 0.922747Z" fill="#1A1400"/>
</svg>
