<svg width="16" height="24" viewBox="0 0 16 24" fill="none" xmlns="http://www.w3.org/2000/svg">
<path d="M3.0946 23.2609L6.29773 7.06297C6.4019 6.5595 6.63627 6.18172 7.00085 5.92964C7.36544 5.67756 7.74738 5.55186 8.14669 5.55256C8.54599 5.55325 8.91509 5.64006 9.25398 5.81297C9.59287 5.98589 9.86613 6.24631 10.0738 6.59422L11.1154 8.26089C11.4279 8.76436 11.8318 9.22027 12.3269 9.6286C12.822 10.0369 13.3904 10.3362 14.0321 10.5265V8.67756H15.5946V23.2609H14.0321V12.688C13.1988 12.497 12.4262 12.1932 11.7144 11.7765C11.0026 11.3598 10.3863 10.8477 9.86544 10.2401L9.24044 13.3651L11.4279 15.4484V23.2609H9.3446V17.0109L7.1571 14.9276L5.2821 23.2609H3.0946ZM3.53731 12.9744L1.32377 12.5578C1.04599 12.5057 0.82898 12.3623 0.67273 12.1276C0.51648 11.8928 0.464396 11.6283 0.516479 11.3338L1.29773 7.24527C1.4019 6.68971 1.69703 6.25117 2.18315 5.92964C2.66926 5.60811 3.19009 5.49978 3.74565 5.60464L4.94356 5.83902L3.53731 12.9744ZM9.86544 5.03172C9.29252 5.03172 8.80224 4.82791 8.3946 4.42027C7.98697 4.01263 7.7828 3.522 7.7821 2.94839C7.78141 2.37478 7.98558 1.8845 8.3946 1.47756C8.80363 1.07061 9.29391 0.866447 9.86544 0.865058C10.437 0.863669 10.9276 1.06784 11.3373 1.47756C11.747 1.88728 11.9509 2.37756 11.9488 2.94839C11.9467 3.51922 11.7429 4.00985 11.3373 4.42027C10.9318 4.83068 10.4411 5.0345 9.86544 5.03172Z" fill="#43360A"/>
</svg>
