<svg width="11" height="7" viewBox="0 0 11 7" fill="none" xmlns="http://www.w3.org/2000/svg">
<path d="M10.7788 0.82876C10.6371 0.687115 10.445 0.607544 10.2446 0.607544C10.0443 0.607544 9.85212 0.687115 9.71043 0.82876L5.97044 4.56875L2.23045 0.82876C2.08795 0.69113 1.89709 0.614974 1.69899 0.616695C1.50089 0.618417 1.31138 0.697878 1.1713 0.837964C1.03121 0.978049 0.951751 1.16755 0.950029 1.36566C0.948308 1.56376 1.02446 1.75461 1.16209 1.89711L5.43626 6.17128C5.57795 6.31293 5.77009 6.3925 5.97044 6.3925C6.17078 6.3925 6.36293 6.31293 6.50462 6.17128L10.7788 1.89711C10.9204 1.75543 11 1.56328 11 1.36294C11 1.16259 10.9204 0.970447 10.7788 0.82876Z" fill="#43360A"/>
</svg>
