<svg width="26" height="26" viewBox="0 0 26 26" fill="none" xmlns="http://www.w3.org/2000/svg">
<path d="M19.9817 4.82996C20.6033 4.82996 21.1994 4.58303 21.639 4.14349C22.0785 3.70395 22.3254 3.10781 22.3254 2.48621C22.3254 1.8646 22.0785 1.26846 21.639 0.828925C21.1994 0.389386 20.6033 0.142456 19.9817 0.142456C19.3601 0.142456 18.7639 0.389386 18.3244 0.828925C17.8849 1.26846 17.6379 1.8646 17.6379 2.48621C17.6379 3.10781 17.8849 3.70395 18.3244 4.14349C18.7639 4.58303 19.3601 4.82996 19.9817 4.82996ZM15.8655 9.9325C15.9143 9.91296 15.9582 9.89343 16.0071 9.8739L15.1819 12.9745C14.9084 14.0048 15.177 15.1034 15.8996 15.8895L19.3518 19.6542L20.426 23.9559C20.636 24.7909 21.4856 25.3036 22.3205 25.0936C23.1555 24.8837 23.6682 24.0341 23.4582 23.1991L22.3352 18.702C22.2424 18.3212 22.052 17.9745 21.7883 17.6864L19.3713 15.0497L20.3137 11.8514L20.7825 12.9745C20.9973 13.4921 21.3928 13.9169 21.8957 14.1708L23.1994 14.8202C23.9709 15.2059 24.9084 14.8934 25.2942 14.1219C25.6799 13.3505 25.3674 12.413 24.5959 12.0272L23.5461 11.5048L22.7991 9.70789C21.9592 7.70105 19.9963 6.39246 17.8186 6.39246C16.7053 6.39246 15.6067 6.62683 14.591 7.07605L14.2004 7.24695C12.594 7.95984 11.3635 9.31726 10.8117 10.9823L10.6848 11.3632C10.4114 12.1835 10.8557 13.0673 11.6711 13.3407C12.4866 13.6141 13.3752 13.1698 13.6487 12.3544L13.7756 11.9735C14.0539 11.1385 14.6692 10.4647 15.47 10.1083L15.8606 9.93738L15.8655 9.9325ZM14.4006 16.5292L13.1799 19.576L10.2795 22.4764C9.66917 23.0868 9.66917 24.078 10.2795 24.6884C10.8899 25.2987 11.8811 25.2987 12.4914 24.6884L15.5041 21.6757C15.7287 21.451 15.9045 21.1825 16.0217 20.8895L16.7297 19.1219L14.7424 16.954C14.6203 16.8221 14.508 16.6805 14.4006 16.5341V16.5292ZM11.3879 13.5262C11.0119 13.3114 10.5383 13.4384 10.3186 13.8143L8.75609 16.5194L6.09983 14.9862C5.35276 14.5565 4.39573 14.8104 3.96605 15.5575L0.841046 20.9725C0.411358 21.7196 0.665265 22.6766 1.41233 23.1063L4.11741 24.6688C4.86448 25.0985 5.82151 24.8446 6.2512 24.0975L9.3762 18.6825C9.44944 18.5555 9.50316 18.4286 9.53734 18.2919L11.676 14.5956C11.8909 14.2196 11.7639 13.746 11.3879 13.5262Z" fill="#43360A"/>
</svg>
