<svg width="375" height="227" viewBox="0 0 375 227" fill="none" xmlns="http://www.w3.org/2000/svg">
<g opacity="0.15">
<path d="M113.346 138.816L90.9701 125.938V100.182C113.346 87.304 90.9703 100.182 113.346 87.304C125.707 94.4175 125.707 94.4176 135.723 100.182V125.938L113.346 138.816Z" fill="#FFDC66"/>
<path d="M164.066 138.816L141.69 125.938V100.182C164.066 87.304 141.69 100.182 164.066 87.304C176.426 94.4175 176.426 94.4176 186.442 100.182V125.938L164.066 138.816Z" fill="#FFDC66"/>
<path d="M138.706 95.3764L116.33 82.4984V56.7424C138.706 43.8644 116.33 56.7424 138.706 43.8644C151.066 50.9779 151.066 50.9779 161.082 56.7424V82.4984L138.706 95.3764Z" fill="#FFDC66"/>
<path d="M264.865 138.925L242.488 126.047V100.291C264.865 87.4133 242.488 100.291 264.865 87.4133C277.225 94.5268 277.225 94.5268 287.241 100.291V126.047L264.865 138.925Z" fill="#FFDC66"/>
<path d="M112.92 226.229L90.5438 213.351V187.595C112.92 174.717 90.5441 187.595 112.92 174.717C125.28 181.831 125.28 181.831 135.296 187.595V213.351L112.92 226.229Z" fill="#FFDC66"/>
<path d="M163.64 226.229L141.263 213.351V187.595C163.639 174.717 141.264 187.595 163.64 174.717C176 181.831 176 181.831 186.016 187.595V213.351L163.64 226.229Z" fill="#FFDC66"/>
<path d="M138.28 182.79L115.904 169.912V144.156C138.28 131.278 115.904 144.156 138.28 131.278C150.64 138.391 150.64 138.391 160.656 144.156V169.912L138.28 182.79Z" fill="#FFDC66"/>
<path d="M188.999 182.79L166.623 169.912V144.156C188.999 131.278 166.623 144.156 188.999 131.278C201.359 138.391 201.359 138.391 211.375 144.156V169.912L188.999 182.79Z" fill="#FFDC66"/>
<path d="M213.719 226.339L191.343 213.461V187.705C213.719 174.827 191.343 187.705 213.719 174.827C226.079 181.94 226.079 181.94 236.095 187.705V213.461L213.719 226.339Z" fill="#FFDC66"/>
<path d="M264.438 226.339L242.062 213.461V187.705C264.438 174.827 242.062 187.705 264.438 174.827C276.798 181.94 276.798 181.94 286.814 187.705V213.461L264.438 226.339Z" fill="#FFDC66"/>
<path d="M239.079 182.899L216.703 170.021V144.265C239.079 131.387 216.703 144.265 239.079 131.387C251.439 138.501 251.439 138.501 261.455 144.265V170.021L239.079 182.899Z" fill="#FFDC66"/>
<path d="M289.798 182.899L267.422 170.021V144.265C289.798 131.387 267.422 144.265 289.798 131.387C302.158 138.501 302.158 138.501 312.174 144.265V170.021L289.798 182.899Z" fill="#FFDC66"/>
<path d="M314.944 138.707L292.568 125.829V100.073C314.944 87.1954 292.568 100.073 314.944 87.1954C327.304 94.3089 327.304 94.3089 337.32 100.073V125.829L314.944 138.707Z" fill="#FFDC66"/>
<path d="M340.304 95.2679L317.928 82.3899V56.6339C340.304 43.7559 317.928 56.6338 340.304 43.7558C352.664 50.8694 352.664 50.8694 362.68 56.6339V82.3899L340.304 95.2679Z" fill="#FFDC66"/>
<path d="M314.518 226.121L292.142 213.243V187.487C314.518 174.609 292.142 187.487 314.518 174.609C326.878 181.722 326.878 181.722 336.894 187.487V213.243L314.518 226.121Z" fill="#FFDC66"/>
<path d="M339.877 182.681L317.501 169.803V144.047C339.877 131.169 317.501 144.047 339.877 131.169C352.238 138.283 352.238 138.283 362.254 144.047V169.803L339.877 182.681Z" fill="#FFDC66"/>
<path d="M365.876 138.707L343.5 125.829V100.073C365.876 87.1954 343.5 100.073 365.876 87.1954C378.236 94.3089 378.237 94.3089 388.252 100.073V125.829L365.876 138.707Z" fill="#FFDC66"/>
<path d="M365.45 226.121L343.074 213.243V187.487C365.45 174.609 343.074 187.487 365.45 174.609C377.81 181.722 377.81 181.722 387.826 187.487V213.243L365.45 226.121Z" fill="#FFDC66"/>
<path d="M87.1344 182.899L64.758 170.021V144.265C87.1341 131.387 64.7583 144.265 87.1344 131.387C99.4945 138.501 99.4945 138.501 109.51 144.265V170.021L87.1344 182.899Z" fill="#FFDC66"/>
<path d="M62.2007 51.5121L39.8244 38.634V12.878C62.2005 3.05176e-05 39.8246 12.878 62.2007 0C74.5609 7.11356 74.5609 7.11359 84.5769 12.878V38.634L62.2007 51.5121Z" fill="#FFDC66"/>
<path d="M61.7745 138.925L39.3982 126.047V100.291C61.7743 87.4134 39.3984 100.291 61.7745 87.4134C74.1347 94.5269 74.1347 94.527 84.1507 100.291V126.047L61.7745 138.925Z" fill="#FFDC66"/>
<path d="M87.1342 95.4858L64.7581 82.6078V56.8518C87.1342 43.9738 64.7581 56.8518 87.1342 43.9738C99.4944 51.0873 99.4945 51.0873 109.51 56.8518V82.6078L87.1342 95.4858Z" fill="#FFDC66"/>
<path d="M35.9887 95.5952L13.6124 82.7172V56.9612C35.9885 44.0832 13.6126 56.9611 35.9887 44.0831C48.3488 51.1967 48.3489 51.1967 58.3649 56.9612V82.7172L35.9887 95.5952Z" fill="#FFDC66"/>
<path d="M36.8409 182.917L14.4646 170.039V144.283C36.8407 131.405 14.4648 144.283 36.8409 131.405C49.2011 138.518 49.2011 138.518 59.2171 144.283V170.039L36.8409 182.917Z" fill="#FFDC66"/>
<path d="M61.7744 226.891L39.3983 214.013V188.257C61.7744 175.379 39.3983 188.257 61.7744 175.379C74.1345 182.492 74.1347 182.492 84.1507 188.257V214.013L61.7744 226.891Z" fill="#FFDC66"/>
<path d="M10.6289 227L-11.7475 214.122V188.366C10.6286 175.488 -11.7472 188.366 10.6289 175.488C22.989 182.601 22.9891 182.602 33.0051 188.366V214.122L10.6289 227Z" fill="#FFDC66"/>
<path d="M-15.6237 182.917L-38 170.039V144.283C-15.6239 131.405 -37.9998 144.283 -15.6237 131.405C-3.26352 138.518 -3.26346 138.518 6.7525 144.283V170.039L-15.6237 182.917Z" fill="#FFDC66"/>
<path d="M10.6289 138.925L-11.7475 126.047V100.291C10.6286 87.4134 -11.7472 100.291 10.6289 87.4134C22.989 94.5269 22.9891 94.527 33.0051 100.291V126.047L10.6289 138.925Z" fill="#FFDC66"/>
<path d="M392.252 182.681L369.876 169.803V144.047C392.252 131.169 369.876 144.047 392.252 131.169C404.613 138.283 404.613 138.283 414.629 144.047V169.803L392.252 182.681Z" fill="#FFDC66"/>
</g>
</svg>
