<?xml version="1.0" encoding="UTF-8"?>
<svg id="Layer_2" data-name="Layer 2" xmlns="http://www.w3.org/2000/svg" viewBox="0 0 2555.18 12.5">
  <defs>
    <style>
      .cls-1 {
        fill: #1a1400;
        stroke-width: 0px;
      }
    </style>
  </defs>
  <g id="Layer_0_Image" data-name="Layer 0 Image">
    <path class="cls-1" d="m6,12.5C2.69,12.5,0,9.81,0,6.5S2.68.5,6,.5h12c3.31,0,6,2.68,6,6,0,3.31-2.69,6-6,6H6Zm37,0c-3.31,0-6-2.69-6-6,0-3.31,2.69-6,6-6h15c3.31,0,6,2.68,6,6,0,3.31-2.69,6-6,6h-15Zm40,0c-3.31,0-6-2.68-6-6s2.68-6,6-6h12c3.31,0,6,2.68,6,6,0,3.31-2.69,6-6,6h-12Zm37,0c-3.31,0-6-2.69-6-6,0-3.31,2.69-6,6-6h15c3.31,0,6,2.68,6,6,0,3.31-2.69,6-6,6h-15Zm40,0c-3.31,0-6-2.69-6-6,0-3.31,2.68-6,6-6h12c3.31,0,6,2.68,6,6,0,3.31-2.69,6-6,6h-12Zm37,0c-3.31,0-6-2.69-6-6,0-3.31,2.69-6,6-6h15c3.31,0,6,2.68,6,6,0,3.31-2.69,6-6,6h-15Zm40,0c-3.31,0-6-2.69-6-6,0-3.31,2.68-6,6-6h12c3.31,0,6,2.68,6,6,0,3.31-2.69,6-6,6h-12Zm37,0c-3.31,0-6-2.69-6-6,0-3.31,2.69-6,6-6h15c3.31,0,6,2.68,6,6,0,3.31-2.69,6-6,6h-15Zm40,0c-3.31,0-6-2.68-6-6,0-3.31,2.68-6,6-6h12c3.31,0,6,2.68,6,6,0,3.31-2.69,6-6,6h-12Zm37,0c-3.31,0-6-2.69-6-6,0-3.31,2.69-6,6-6h15c3.31,0,6,2.68,6,6,0,3.31-2.69,6-6,6h-15Zm40,0c-3.31,0-6-2.68-6-6s2.68-6,6-6h12c3.31,0,6,2.68,6,6,0,3.31-2.69,6-6,6h-12Zm37,0c-3.31,0-6-2.69-6-6,0-3.31,2.69-6,6-6h15c3.31,0,6,2.68,6,6,0,3.31-2.69,6-6,6h-15Zm40,0c-3.31,0-6-2.69-6-6s2.68-6,6-6h12c3.31,0,6,2.68,6,6,0,3.31-2.69,6-6,6h-12Zm37,0c-3.31,0-6-2.69-6-6,0-3.31,2.69-6,6-6h15c3.31,0,6,2.68,6,6,0,3.31-2.69,6-6,6h-15Zm40,0c-3.31,0-6-2.68-6-6s2.68-6,6-6h12c3.31,0,6,2.68,6,6,0,3.31-2.69,6-6,6h-12Zm37,0c-3.31,0-6-2.69-6-6,0-3.31,2.69-6,6-6h15c3.31,0,6,2.68,6,6,0,3.31-2.69,6-6,6h-15Zm40,0c-3.31,0-6-2.68-6-6,0-3.31,2.68-6,6-6h12c3.31,0,6,2.68,6,6,0,3.31-2.69,6-6,6h-12Zm37,0c-3.31,0-6-2.69-6-6,0-3.31,2.69-6,6-6h15c3.31,0,6,2.68,6,6,0,3.31-2.69,6-6,6h-15Zm40,0c-3.31,0-6-2.69-6-6,0-3.31,2.68-6,6-6h12c3.31,0,6,2.68,6,6,0,3.31-2.69,6-6,6h-12Zm37,0c-3.31,0-6-2.69-6-6,0-3.31,2.69-6,6-6h15c3.31,0,6,2.68,6,6,0,3.31-2.69,6-6,6h-15Zm40,0c-3.31,0-6-2.68-6-6,0-3.31,2.68-6,6-6h12c3.31,0,6,2.68,6,6,0,3.31-2.69,6-6,6h-12Zm37,0c-3.31,0-6-2.69-6-6,0-3.31,2.69-6,6-6h15c3.31,0,6,2.68,6,6,0,3.31-2.69,6-6,6h-15Zm40,0c-3.31,0-6-2.68-6-6s2.68-6,6-6h12c3.31,0,6,2.68,6,6,0,3.31-2.69,6-6,6h-12Zm37,0c-3.31,0-6-2.69-6-6,0-3.31,2.69-6,6-6h15c3.31,0,6,2.68,6,6,0,3.31-2.69,6-6,6h-15Zm40,0c-3.31,0-6-2.69-6-6s2.68-6,6-6h12c3.31,0,6,2.68,6,6,0,3.31-2.69,6-6,6h-12Zm37,0c-3.31,0-6-2.69-6-6,0-3.31,2.69-6,6-6h15c3.31,0,6,2.68,6,6,0,3.31-2.69,6-6,6h-15Zm40,0c-3.31,0-6-2.69-6-6s2.68-6,6-6h12c3.31,0,6,2.68,6,6,0,3.31-2.69,6-6,6h-12Zm37,0c-3.31,0-6-2.69-6-6,0-3.31,2.69-6,6-6h15c3.31,0,6,2.68,6,6,0,3.31-2.69,6-6,6h-15Zm40,0c-3.31,0-6-2.68-6-6,0-3.31,2.68-6,6-6h12c3.31,0,6,2.68,6,6,0,3.31-2.69,6-6,6h-12Zm37,0c-3.31,0-6-2.69-6-6,0-3.31,2.69-6,6-6h15c3.31,0,6,2.68,6,6,0,3.31-2.69,6-6,6h-15Zm40,0c-3.31,0-6-2.69-6-6,0-3.31,2.68-6,6-6h12c3.31,0,6,2.68,6,6,0,3.31-2.69,6-6,6h-12Zm37,0c-3.31,0-6-2.69-6-6,0-3.31,2.69-6,6-6h15c3.31,0,6,2.68,6,6,0,3.31-2.69,6-6,6h-15Zm40,0c-3.31,0-6-2.68-6-6,0-3.31,2.68-6,6-6h12c3.31,0,6,2.68,6,6,0,3.31-2.69,6-6,6h-12Zm37,0c-3.31,0-6-2.69-6-6,0-3.31,2.69-6,6-6h15c3.31,0,6,2.68,6,6,0,3.31-2.69,6-6,6h-15Zm40,0c-3.31,0-6-2.69-6-6s2.68-6,6-6h12c3.31,0,6,2.68,6,6,0,3.31-2.69,6-6,6h-12Zm37,0c-3.31,0-6-2.69-6-6,0-3.31,2.69-6,6-6h15c3.31,0,6,2.68,6,6,0,3.31-2.69,6-6,6h-15Zm40,0c-3.31,0-6-2.68-6-6s2.68-6,6-6h12c3.31,0,6,2.68,6,6,0,3.31-2.69,6-6,6h-12Zm37,0c-3.31,0-6-2.69-6-6,0-3.31,2.69-6,6-6h15c3.31,0,6,2.68,6,6,0,3.31-2.69,6-6,6h-15Zm40,0c-3.31,0-6-2.69-6-6s2.68-6,6-6h12c3.31,0,6,2.68,6,6,0,3.31-2.69,6-6,6h-12Zm37,0c-3.31,0-6-2.69-6-6,0-3.31,2.69-6,6-6h15c3.31,0,6,2.68,6,6,0,3.31-2.69,6-6,6h-15Zm40,0c-3.31,0-6-2.68-6-6,0-3.31,2.68-6,6-6h12c3.31,0,6,2.68,6,6,0,3.31-2.69,6-6,6h-12Zm37,0c-3.31,0-6-2.69-6-6,0-3.31,2.69-6,6-6h15c3.31,0,6,2.68,6,6,0,3.31-2.69,6-6,6h-15Zm40,0c-3.31,0-6-2.69-6-6,0-3.31,2.68-6,6-6h12c3.31,0,6,2.68,6,6,0,3.31-2.69,6-6,6h-12Zm37,0c-3.31,0-6-2.69-6-6,0-3.31,2.69-6,6-6h15c3.31,0,6,2.68,6,6,0,3.31-2.69,6-6,6h-15Zm40,0c-3.31,0-6-2.69-6-6,0-3.31,2.68-6,6-6h12c3.31,0,6,2.68,6,6,0,3.31-2.69,6-6,6h-12Zm37,0c-3.31,0-6-2.69-6-6,0-3.31,2.69-6,6-6h15c3.31,0,6,2.68,6,6,0,3.31-2.69,6-6,6h-15Zm40,0c-3.31,0-6-2.69-6-6s2.68-6,6-6h12c3.31,0,6,2.68,6,6,0,3.31-2.69,6-6,6h-12Zm37,0c-3.31,0-6-2.69-6-6,0-3.31,2.69-6,6-6h15c3.31,0,6,2.68,6,6,0,3.31-2.69,6-6,6h-15Zm40,0c-3.31,0-6-2.68-6-6s2.68-6,6-6h12c3.31,0,6,2.68,6,6,0,3.31-2.69,6-6,6h-12Zm37,0c-3.31,0-6-2.69-6-6,0-3.31,2.69-6,6-6h15c3.31,0,6,2.68,6,6,0,3.31-2.69,6-6,6h-15Zm40,0c-3.31,0-6-2.69-6-6s2.68-6,6-6h12c3.31,0,6,2.68,6,6,0,3.31-2.69,6-6,6h-12Zm37,0c-3.31,0-6-2.69-6-6,0-3.31,2.69-6,6-6h15c3.31,0,6,2.68,6,6,0,3.31-2.69,6-6,6h-15Zm40,0c-3.31,0-6-2.68-6-6,0-3.31,2.68-6,6-6h12c3.31,0,6,2.68,6,6,0,3.31-2.69,6-6,6h-12Zm37,0c-3.31,0-6-2.69-6-6,0-3.31,2.69-6,6-6h15c3.31,0,6,2.68,6,6,0,3.31-2.69,6-6,6h-15Zm40,0c-3.31,0-6-2.68-6-6,0-3.31,2.68-6,6-6h12c3.31,0,6,2.68,6,6,0,3.31-2.69,6-6,6h-12Zm37,0c-3.31,0-6-2.69-6-6,0-3.31,2.69-6,6-6h15c3.31,0,6,2.68,6,6,0,3.31-2.69,6-6,6h-15Zm40,0c-3.31,0-6-2.69-6-6,0-3.31,2.68-6,6-6h12c3.31,0,6,2.68,6,6,0,3.31-2.69,6-6,6h-12Zm37,0c-3.31,0-6-2.69-6-6,0-3.31,2.69-6,6-6h15c3.31,0,6,2.68,6,6,0,3.31-2.69,6-6,6h-15Zm40,0c-3.31,0-6-2.69-6-6s2.68-6,6-6h12c3.31,0,6,2.68,6,6,0,3.31-2.69,6-6,6h-12Zm37,0c-3.31,0-6-2.69-6-6,0-3.31,2.69-6,6-6h15c3.31,0,6,2.68,6,6,0,3.31-2.69,6-6,6h-15Zm40,0c-3.31,0-6-2.68-6-6s2.68-6,6-6h12c3.31,0,6,2.68,6,6,0,3.31-2.69,6-6,6h-12Zm37,0c-3.31,0-6-2.69-6-6,0-3.31,2.69-6,6-6h15c3.31,0,6,2.68,6,6,0,3.31-2.69,6-6,6h-15Zm40,0c-3.31,0-6-2.69-6-6s2.68-6,6-6h12c3.31,0,6,2.68,6,6,0,3.31-2.69,6-6,6h-12Zm37,0c-3.31,0-6-2.69-6-6,0-3.31,2.69-6,6-6h15c3.31,0,6,2.68,6,6,0,3.31-2.69,6-6,6h-15Zm40,0c-3.31,0-6-2.69-6-6s2.68-6,6-6h12c3.31,0,6,2.68,6,6,0,3.31-2.69,6-6,6h-12Zm37,0c-3.31,0-6-2.69-6-6,0-3.31,2.69-6,6-6h15c3.31,0,6,2.68,6,6,0,3.31-2.69,6-6,6h-15Zm40,0c-3.31,0-6-2.69-6-6S2543.69,0,2547,0h2.17s0,0,0,0c3.31,0,6,2.68,6,6,0,3.31-2.68,6-6,6h-2.18Z"/>
  </g>
</svg>