<?xml version="1.0" encoding="UTF-8"?>
<svg id="Layer_2" data-name="Layer 2" xmlns="http://www.w3.org/2000/svg" viewBox="0 0 1029.06 175.76">
  <defs>
    <style>
      .cls-1 {
        fill: #1a1400;
        stroke-width: 0px;
      }
    </style>
  </defs>
  <g id="Layer_0_Image" data-name="Layer 0 Image">
    <g>
      <path class="cls-1" d="m78.56,68.52c2.22.85,4.28,1.49,6.21,2.4,11.23,5.33,17.34,14.26,18.23,26.63.98,13.65-2.35,25.6-14.3,33.79-6.59,4.52-14.08,7.07-21.95,7.27-19.51.5-39.03.44-58.55.61-.09,0-.18,0-.27-.01-4.58-.35-7.13-2.7-7.75-7.25-.17-1.25-.18-2.53-.18-3.8C0,89.61,0,51.06,0,12.5c0-1.36.02-2.73.22-4.07C.87,4.03,3.44,1.66,7.9,1.49c3.63-.13,7.26-.08,10.9-.07,13.71.03,27.43-.14,41.14.18,9.55.23,18.69,2.45,26.68,8.11,7.81,5.54,12.17,13.23,12.88,22.62.37,4.98.05,10.2-1.08,15.05-2.09,8.92-8.22,14.9-16.18,19.1-1.04.55-2.13,1.01-3.19,1.51-.08.04-.12.13-.47.51ZM15.81,126.29c10.93,0,21.63.07,32.33-.03,5.8-.05,11.64-.04,17.38-.7,12.25-1.4,19.69-8,21.27-19.02.58-4.05.33-8.35-.3-12.42-1.11-7.26-5.34-12.61-12.27-15.03-4.64-1.62-9.66-2.79-14.54-2.93-14.06-.41-28.13-.2-42.2-.22-.52,0-1.04.09-1.68.15v50.19Zm.09-111.8v48.41c13.76,0,27.29.15,40.82-.09,3.84-.07,7.78-.92,11.48-2.04,10.31-3.13,15.64-10.75,15.73-21.87.1-11.38-5.02-19.06-15.45-22.29-4.02-1.25-8.34-2-12.54-2.1-12.8-.3-25.62-.17-38.43-.19-.52,0-1.04.11-1.6.17Z"/>
      <path class="cls-1" d="m460.23,79.1c8.09,3.34,12.29,9.52,15.91,16.23,5.94,11.01,11.86,22.03,17.79,33.05.21.4.43.8.64,1.2,1.98,3.96,1.55,7.67-1.09,9.64-2.68,2-7.99,1.75-10.62-.81-1.53-1.49-2.81-3.33-3.84-5.21-6.79-12.41-13.63-24.79-20.15-37.34-4.6-8.85-11.3-14.41-21.5-14.67-9.79-.25-19.59-.05-29.77-.05v2.88c0,15.43,0,30.85,0,46.28,0,1.18.03,2.37-.13,3.53-.64,4.48-3.19,6.65-7.78,6.7-4.67.06-7.4-2.19-8.06-6.71-.18-1.25-.19-2.53-.19-3.8,0-39.38,0-78.77,0-118.15,0-1.27,0-2.55.18-3.8.59-4.2,3.03-6.37,7.3-6.61.45-.03.91-.04,1.36-.04,16.62.02,33.25-.07,49.87.13,8.24.1,16.25,1.77,23.57,5.79,11.16,6.14,16.87,15.84,18.04,28.34,1.18,12.65-1.13,24.23-10.77,33.41-4.85,4.62-10.74,7.33-17.12,9.11-.96.27-1.93.48-3.64.9Zm-52.55-11.21c.43.17.59.3.76.3,14.08-.09,28.18.34,42.22-.43,16.2-.89,24.84-10.07,25.5-25.49.51-11.87-4.77-20.68-14.92-24.74-5.83-2.33-11.97-2.87-18.17-2.9-10.9-.04-21.8-.01-32.7-.01-.87,0-1.73,0-2.68,0v53.27Z"/>
      <path class="cls-1" d="m794.81,60.39v-3.61c0-15.52,0-31.04,0-46.55,0-1.09-.03-2.18.09-3.26.51-4.66,3.38-7.11,8.08-6.96,4.76.15,7.38,2.71,7.59,7.45.05,1.09.04,2.18.04,3.27,0,39.66,0,79.31,0,118.97,0,1.09.01,2.18-.03,3.27-.2,4.85-2.75,7.44-7.43,7.58-4.93.15-7.72-2.17-8.1-7.14-.25-3.24-.05-6.51-.57-9.94-.93,1.35-1.76,2.77-2.79,4.04-9.88,12.2-23.01,15.24-37.71,12.63-16.1-2.86-25.98-13.2-30.63-28.35-4.57-14.88-4.27-29.87,1.48-44.53,6.27-15.97,21.99-25.82,39.13-24.8,11.02.66,20.53,4.31,27.55,13.18,1.04,1.31,1.91,2.75,3.29,4.77Zm.35,30.75c-.03-4.79-.48-11.39-2.9-17.66-4.17-10.76-11.81-17.24-23.53-18.14-12.44-.95-22.46,3.33-27.97,15.01-5.92,12.54-5.91,25.7-1.67,38.69,3.72,11.39,11.82,17.9,23.96,19.12,11.84,1.19,22.2-4.37,27.61-14.91,3.27-6.36,4.21-13.24,4.5-22.11Z"/>
      <path class="cls-1" d="m680.93,124.35c-3.14,5.84-7.53,10.34-13.49,13.3-16.14,8.01-38.6,1.79-46.49-13.41-4.89-9.42-4.5-19.11,1.65-28.07,3.07-4.48,7.93-6.53,12.94-8.05,9.64-2.93,19.62-3.52,29.61-3.82,5.25-.16,10.5-.03,16.13-.03.06-7.41.4-14.49-3.07-20.98-2.9-5.41-8-7.34-13.76-7.94-10.43-1.1-20.17,1.35-29.52,5.79-.98.47-1.95.96-2.94,1.41-3.73,1.68-6.56.97-8.2-2.02-1.78-3.27-.9-7.67,2.52-9.17,6.03-2.66,12.17-5.21,18.5-6.99,8.93-2.5,18.13-2.71,27.25-.83,14.21,2.92,22.33,12.29,23.92,27.52.4,3.87.54,7.78.56,11.68.06,16.06.03,32.12.01,48.17,0,1.26,0,2.56-.24,3.79-.78,4.07-3.33,5.99-7.56,5.84-4-.14-6.57-2.24-6.94-6.23-.3-3.23-.06-6.5-.06-9.75-.27-.07-.55-.14-.82-.2Zm.26-29.35c-7.23,0-14.23-.35-21.17.11-5.66.37-11.31,1.46-16.85,2.71-3.96.89-6.94,3.46-8.44,7.43-2.53,6.73-.09,15.21,5.65,19.59,8.71,6.64,23.26,5.61,31.69-2.25,8.08-7.54,9.81-17.17,9.11-27.59Z"/>
      <path class="cls-1" d="m140.09,95.14c.24,17.23,9.41,32.22,30.75,33.03,9.79.37,19.16-1.38,27.52-6.94,1.05-.7,2.17-1.38,3.35-1.77,2.5-.84,4.86-.53,6.7,1.58,1.7,1.94,2.15,4.93.37,7.03-1.83,2.16-4.1,4.21-6.59,5.5-17.75,9.18-36,10.43-54.18,1.7-11.93-5.72-18.95-15.93-21.82-28.69-2.89-12.83-2.48-25.6,2.94-37.84,8.26-18.66,26.01-27.89,45.94-26.07,21.23,1.94,33.22,16.98,35.76,36.92.38,2.96.53,5.97.57,8.95.05,4.23-1.75,6.12-5.98,6.54-.99.1-2,.07-3,.07-19.72,0-39.43,0-59.15,0h-3.19Zm.14-10.58h57.41c-.09-15.81-7.79-28.91-23.29-30.2-19.4-1.62-32.62,10.11-34.13,30.2Z"/>
      <path class="cls-1" d="m244.3,95.14c-.02,19.58,11.45,30.95,26.76,32.67,11.53,1.3,22.43-.52,32.26-7.11.82-.55,1.73-1.06,2.67-1.32,2.54-.72,4.91-.42,6.65,1.79,1.7,2.16,2.02,4.81.31,6.8-1.96,2.28-4.4,4.35-7.03,5.8-12.22,6.71-25.33,8.49-39.03,6.33-11.27-1.78-20.82-6.69-28.08-15.67-5.89-7.29-8.89-15.8-9.78-24.97-1.02-10.58-.24-21.01,4.25-30.9,8.38-18.44,25.87-27.69,45.8-25.91,21.3,1.9,33.27,16.89,35.85,36.83.42,3.23.56,6.51.55,9.77-.01,3.41-1.66,5.14-5.04,5.68-1.25.2-2.53.21-3.8.21-19.81.01-39.61,0-59.42,0h-2.93Zm57.43-10.53c.07-15.85-8.14-29.86-25.64-30.47-20.54-.71-30.97,15.02-31.62,30.47h57.27Z"/>
      <path class="cls-1" d="m527.78,95.14c0,19.55,11.42,30.95,26.77,32.67,11.53,1.3,22.43-.52,32.26-7.11.75-.5,1.58-.91,2.42-1.23,2.62-.98,5.34-.28,6.92,1.69,1.61,2.02,2,4.98.16,7.05-1.94,2.18-4.34,4.16-6.9,5.56-12.23,6.7-25.33,8.48-39.03,6.32-11.27-1.78-20.82-6.69-28.07-15.67-5.89-7.29-8.89-15.8-9.77-24.97-1.02-10.58-.24-21.01,4.25-30.9,8.38-18.44,25.87-27.69,45.8-25.91,21.3,1.9,33.26,16.9,35.84,36.83.42,3.23.56,6.51.55,9.77-.01,3.41-1.66,5.14-5.05,5.68-1.25.2-2.53.21-3.8.21-19.81.01-39.61,0-59.42,0h-2.93Zm57.44-10.52c.02-15.92-8.14-30.12-26.22-30.49-20.21-.42-30.46,15.29-31.05,30.49h57.27Z"/>
      <path class="cls-1" d="m875.95,121.17c1.59-3.81,2.97-7.12,4.35-10.41,1.79-4.25,5.3-5.98,9.1-4.37,4.03,1.72,5.53,5.56,3.65,9.83-7.68,17.4-15.12,34.91-22.65,52.38-1.52,3.51-3.27,6.72-7.72,7.12-5.86.52-9.21-3.24-7.8-8.94.3-1.22.8-2.41,1.3-3.56,3.38-7.72,6.74-15.44,10.22-23.11.74-1.62.75-2.94.03-4.6-11.46-26.52-22.86-53.07-34.24-79.64-.71-1.65-1.33-3.4-1.56-5.17-.48-3.68,1.07-6.11,4.26-7.3,3.52-1.32,7.58-.51,9.42,2.15,1.12,1.62,1.95,3.47,2.71,5.3,9.15,22.29,18.25,44.59,27.37,66.89.4.97.86,1.91,1.55,3.43Z"/>
      <path class="cls-1" d="m1016.92,42.42c1.44-.09,3.25-.25,5.06-.29,3.83-.09,6.65,2.26,7.04,5.77.37,3.39-2.04,6.63-5.82,6.92-4.5.34-9.06.34-13.55,0-3.8-.29-6.16-3.22-5.98-6.51.2-3.47,2.95-5.83,6.89-5.88,1.99-.02,3.99,0,6.36,0Z"/>
      <path class="cls-1" d="m892.65,86.58c.24-.85.5-2.49,1.16-3.94,1.46-3.21,3-6.39,4.74-9.45,1.91-3.37,5.49-4.5,8.59-2.98,3.12,1.53,4.36,5.01,2.74,8.6-1.78,3.95-3.77,7.81-5.84,11.62-1.39,2.57-4.28,3.6-7.01,2.8-2.62-.76-4.34-3.07-4.38-6.65Z"/>
      <path class="cls-1" d="m969.45,55.32c-1.81,0-3.63.1-5.43-.02-3.78-.26-6.31-2.78-6.33-6.16-.03-3.34,2.24-5.84,5.95-6.21,3.69-.36,7.41-.58,11.12-.63,4.04-.05,6.81,2.52,6.93,6.13.11,3.48-2.35,6.17-6.25,6.56-1.97.2-3.98.03-5.98.03,0,.1,0,.19,0,.29Z"/>
      <path class="cls-1" d="m930.38,45.5c3.73.05,5.94,1.65,6.81,4.32.87,2.7.04,5.7-2.53,7.11-3.24,1.78-6.64,3.33-10.11,4.59-2.57.93-4.85-.23-6.38-2.43-1.56-2.24-1.72-4.85.09-6.82,3.45-3.76,8.12-5.53,12.13-6.77Z"/>
    </g>
  </g>
</svg>