<?xml version="1.0" encoding="UTF-8"?>
<svg id="Layer_2" data-name="Layer 2" xmlns="http://www.w3.org/2000/svg" viewBox="0 0 3499.48 175.76">
  <defs>
    <style>
      .cls-1 {
        fill: #1a1400;
        stroke-width: 0px;
      }
    </style>
  </defs>
  <g id="Layer_0_Image" data-name="Layer 0 Image">
    <g>
      <path class="cls-1" d="m78.64,68.63c1.24.42,2.41.78,3.56,1.21,13.82,5.15,21.59,17.15,21.05,32.25-.38,10.46-3.16,19.84-11.46,26.91-6.05,5.15-13.19,7.96-20.94,9.09-5.01.73-10.11,1.07-15.18,1.12-15.16.14-30.33.06-45.5.05-7.45,0-10.18-2.7-10.18-10.19C0,89.87,0,50.68.01,11.49.02,4.11,2.69,1.43,10.01,1.43c16.62.01,33.24-.13,49.85.18,9.55.18,18.69,2.43,26.7,8.07,7.83,5.52,12.2,13.2,12.93,22.59.39,4.98.06,10.2-1.06,15.06-2.06,8.93-8.19,14.92-16.13,19.14-1.04.55-2.13,1-3.19,1.52-.13.06-.19.26-.46.65Zm-62.8,7.47v50.07c.78.05,1.4.11,2.01.11,13.52,0,27.05.05,40.57-.09,3.42-.04,6.9-.46,10.24-1.2,8.86-1.96,15.65-6.66,17.62-15.99.9-4.26,1.03-8.87.55-13.21-1.02-9.07-6.26-15.11-15.06-17.65-3.71-1.07-7.62-1.92-11.46-1.99-14.33-.26-28.68-.17-43.02-.2-.44,0-.87.09-1.45.15Zm.06-61.61v48.41c13.76,0,27.3.15,40.82-.09,3.84-.07,7.78-.92,11.48-2.04,10.31-3.13,15.63-10.76,15.72-21.87.09-11.38-5.03-19.05-15.46-22.29-3.94-1.22-8.16-1.99-12.27-2.09-12.9-.3-25.8-.17-38.7-.2-.52,0-1.04.11-1.59.18Z"/>
      <path class="cls-1" d="m407.61,81.14v14.32c0,11.71,0,23.41,0,35.12,0,1.18.02,2.37-.18,3.53-.74,4.41-3.36,6.48-8.01,6.43-4.42-.05-7.05-2.21-7.73-6.45-.2-1.25-.23-2.53-.24-3.79-.01-39.57-.01-79.13,0-118.7,0-1.18.02-2.37.18-3.53.6-4.2,3.03-6.49,7.31-6.58,5.99-.13,11.99-.07,17.99-.07,11.08.01,22.17-.12,33.25.13,9.57.22,18.77,2.25,26.82,7.77,10.45,7.18,14.69,17.64,15.06,29.89.34,11.4-2.38,21.77-11.04,29.9-4.88,4.58-10.75,7.32-17.13,9.1-.96.27-1.93.48-3.55.88,10.02,4.19,14.03,12.95,18.53,21.28,4.91,9.09,9.81,18.2,14.71,27.29.34.64.69,1.28,1.01,1.93,1.98,3.96,1.55,7.67-1.1,9.64-2.68,1.99-8,1.74-10.61-.82-1.53-1.49-2.81-3.33-3.84-5.21-6.79-12.41-13.63-24.79-20.15-37.34-4.6-8.85-11.3-14.4-21.5-14.66-9.79-.25-19.59-.05-29.76-.05Zm.13-13.23c.34.12.6.28.85.28,14.08-.1,28.19.37,42.22-.47,16.16-.97,24.63-10.01,25.36-25.33.57-11.95-4.77-21-15.06-24.88-3.27-1.23-6.83-2.25-10.29-2.34-14.16-.38-28.32-.36-42.49-.47-.15,0-.31.16-.59.32v52.9Z"/>
      <path class="cls-1" d="m794.81,60.39v-3.61c0-15.52,0-31.04,0-46.55,0-1.09-.03-2.18.09-3.26.51-4.66,3.38-7.11,8.08-6.96,4.76.15,7.38,2.71,7.59,7.45.05,1.09.04,2.18.04,3.27,0,39.66,0,79.31,0,118.97,0,1.09.01,2.18-.03,3.27-.2,4.85-2.75,7.44-7.43,7.58-4.93.15-7.62-2.18-8.13-7.14-.17-1.62-.11-3.26-.12-4.89-.02-1.62,0-3.25,0-5.66-1.34,1.96-2.18,3.38-3.21,4.65-9.88,12.2-23.01,15.24-37.71,12.63-16.1-2.86-25.98-13.2-30.63-28.35-4.57-14.88-4.27-29.87,1.48-44.53,6.27-15.97,21.99-25.82,39.13-24.8,11.02.66,20.53,4.31,27.55,13.18,1.04,1.31,1.91,2.75,3.29,4.77Zm.35,30.44c-.07-4.83-.53-11.42-3.03-17.67-4.29-10.74-12.03-17.05-23.75-17.84-12.25-.83-22.2,3.4-27.51,14.86-6.41,13.83-6.39,28.22-.42,42.19,4.23,9.91,12.39,15.2,23.22,15.79,10.61.58,19.46-2.94,25.42-12.14,4.6-7.09,5.81-15.12,6.07-25.19Z"/>
      <path class="cls-1" d="m680.94,124.35c-3.14,5.84-7.53,10.34-13.49,13.3-16.14,8.01-38.6,1.79-46.49-13.41-4.89-9.42-4.5-19.11,1.65-28.07,3.07-4.48,7.93-6.53,12.94-8.05,9.64-2.93,19.62-3.52,29.61-3.82,5.25-.16,10.5-.03,16.13-.03.06-7.41.4-14.49-3.07-20.98-2.9-5.41-8-7.34-13.76-7.94-10.43-1.1-20.17,1.35-29.52,5.79-.98.47-1.95.96-2.94,1.41-3.73,1.68-6.56.97-8.2-2.02-1.78-3.27-.9-7.67,2.52-9.17,6.03-2.66,12.17-5.21,18.5-6.99,8.93-2.5,18.13-2.71,27.25-.83,14.21,2.92,22.33,12.29,23.92,27.52.4,3.87.54,7.78.56,11.68.06,16.06.03,32.12.02,48.17,0,1.26,0,2.56-.24,3.79-.78,4.07-3.33,5.99-7.56,5.84-4-.14-6.57-2.24-6.94-6.23-.3-3.23-.06-6.5-.06-9.75-.27-.07-.55-.14-.82-.2Zm.26-29.38c-7.12,0-14.02-.35-20.87.11-5.75.39-11.49,1.47-17.12,2.73-3.96.88-6.95,3.44-8.46,7.41-2.55,6.71-.12,15.22,5.61,19.6,8.7,6.66,23.26,5.65,31.7-2.2,8.1-7.53,9.82-17.17,9.14-27.64Z"/>
      <path class="cls-1" d="m140.14,95.14c.13,19.24,11.14,30.91,26.86,32.68,11.53,1.3,22.43-.53,32.24-7.15.45-.3.92-.58,1.41-.81,3.12-1.5,6.35-.87,8.08,1.56,1.78,2.51,1.41,6.06-1.17,8.37-1.68,1.5-3.54,2.9-5.54,3.91-17.72,9.02-35.86,10.25-53.95,1.59-12.04-5.77-19.08-16.07-21.93-28.93-2.84-12.83-2.4-25.62,3.08-37.83,8.29-18.46,25.86-27.67,45.8-25.87,21.27,1.92,33.24,16.94,35.81,36.87.39,3.05.55,6.15.57,9.22.03,3.96-1.72,5.8-5.66,6.28-1.08.13-2.18.11-3.26.11-19.81,0-39.61,0-59.42,0h-2.92Zm57.47-10.53c.06-15.87-8.16-29.87-25.65-30.47-20.56-.71-30.98,15.07-31.62,30.47h57.27Z"/>
      <path class="cls-1" d="m244.14,95.14c.69,22.03,14.11,34,35.02,33.04,8.88-.41,17.13-2.66,24.6-7.7,3.58-2.42,7.29-1.77,9.19,1.08,1.91,2.86,1.12,6.48-2.21,9.07-6.83,5.33-14.77,8.06-23.2,9.44-11.15,1.82-22.11,1.14-32.57-3.44-14.29-6.25-22.36-17.48-25.15-32.57-2.24-12.1-1.62-24.04,3.47-35.44,8.27-18.5,25.81-27.74,45.74-25.98,21.32,1.89,33.27,16.83,35.9,36.78.4,3.05.55,6.15.58,9.22.04,4.1-1.73,5.95-5.82,6.4-.99.11-2,.09-2.99.09-19.81,0-39.61,0-59.42,0h-3.14Zm57.61-10.52c-.03-16.05-8.19-30.25-26.51-30.5-20.18-.28-30.23,15.61-30.75,30.5h57.27Z"/>
      <path class="cls-1" d="m527.64,95.14c.64,21.74,13.77,33.87,34.69,33.06,8.97-.35,17.33-2.58,24.88-7.7,3.6-2.44,7.28-1.81,9.2,1.02,1.98,2.92,1.13,6.59-2.35,9.26-6.79,5.2-14.64,7.92-22.98,9.28-11.15,1.82-22.11,1.16-32.58-3.41-14.3-6.24-22.38-17.45-25.18-32.54-2.25-12.1-1.63-24.03,3.45-35.44,8.28-18.6,26.02-27.84,45.98-26,21.16,1.95,33.2,17,35.69,36.98.38,3.05.54,6.15.56,9.22.02,3.82-1.7,5.63-5.5,6.13-1.07.14-2.17.13-3.26.13-19.81,0-39.61,0-59.42,0h-3.18Zm57.55-10.53c.13-15.76-7.94-29.06-23.69-30.33-22.66-1.83-32.83,15-33.59,30.33h57.27Z"/>
      <path class="cls-1" d="m875.96,121.16c1.59-3.81,2.97-7.12,4.35-10.41,1.79-4.25,5.31-5.98,9.1-4.36,4.02,1.72,5.52,5.56,3.64,9.83-7.68,17.4-15.12,34.91-22.65,52.37-1.52,3.51-3.27,6.71-7.72,7.11-5.86.52-9.2-3.25-7.79-8.95.3-1.22.8-2.41,1.3-3.56,3.38-7.72,6.74-15.44,10.22-23.11.74-1.63.74-2.94.03-4.6-11.46-26.52-22.86-53.07-34.23-79.64-.71-1.65-1.33-3.4-1.56-5.17-.48-3.68,1.07-6.1,4.27-7.3,3.53-1.32,7.58-.51,9.42,2.16,1.12,1.62,1.95,3.47,2.7,5.3,9.15,22.29,18.25,44.59,27.37,66.89.4.97.86,1.91,1.55,3.42Z"/>
      <path class="cls-1" d="m892.66,86.6c.24-.85.49-2.49,1.16-3.94,1.46-3.21,3-6.39,4.74-9.46,1.91-3.37,5.49-4.51,8.58-3,3.12,1.52,4.37,5,2.76,8.59-1.78,3.95-3.77,7.81-5.83,11.63-1.39,2.57-4.28,3.6-7,2.82-2.62-.76-4.34-3.06-4.39-6.64Z"/>
      <path class="cls-1" d="m932.41,47.5c3.73.06,5.93,1.68,6.79,4.35.86,2.7.01,5.69-2.56,7.1-3.24,1.77-6.64,3.33-10.12,4.58-2.57.93-4.85-.25-6.37-2.46-1.55-2.24-1.7-4.85.12-6.82,3.47-3.74,8.12-5.54,12.14-6.75Z"/>
      <path class="cls-1" d="m1451.08,143.42c-1.97,0-3.94,0-5.91-.03-3.31-.03-5.97-2.74-5.94-6.06.03-3.29,2.71-5.94,6-5.94h.06c4.9.05,9.83.04,14.87-.04.03,0,.06,0,.09,0,3.27,0,5.95,2.63,6,5.91.05,3.31-2.6,6.04-5.91,6.09-3.11.05-6.22.07-9.25.07Zm1695.88-.67c-.74,0-1.5-.03-2.27-.08-3.31-.22-5.81-3.07-5.6-6.38s3.06-5.81,6.38-5.6c1.77.12,3.51.02,5.1-.29,1.26-.25,2.57-.66,3.87-1.21,3.05-1.3,6.57.11,7.88,3.15,1.31,3.05-.11,6.57-3.15,7.88-2.07.89-4.19,1.55-6.29,1.96-1.91.37-3.89.56-5.92.56Zm-1726.71-.14c-.11,0-.22,0-.33,0-1.79-.1-3.57-.2-5.35-.31-2.28-.14-4.53-.3-6.76-.47-3.3-.25-5.78-3.13-5.53-6.44.25-3.3,3.12-5.78,6.44-5.53,2.18.17,4.38.32,6.6.46,1.74.11,3.49.21,5.23.31,3.31.18,5.85,3,5.67,6.31-.17,3.2-2.82,5.68-5.99,5.68Zm64.99-.13c-3.16,0-5.81-2.47-5.99-5.67-.18-3.31,2.35-6.14,5.66-6.32,3.95-.22,7.94-.47,11.87-.76,3.31-.25,6.18,2.24,6.42,5.54.24,3.3-2.24,6.18-5.54,6.42-4,.3-8.07.56-12.1.78-.11,0-.22,0-.33,0Zm36.88-3.11c-3.01,0-5.6-2.26-5.95-5.32-.38-3.29,1.98-6.27,5.28-6.65,4.94-.57,9.9-1.2,14.73-1.89,3.29-.46,6.32,1.82,6.78,5.1.46,3.28-1.82,6.32-5.1,6.78-4.94.7-10,1.35-15.04,1.93-.23.03-.46.04-.69.04Zm-138.68-.05c-.25,0-.51-.02-.77-.05-5-.64-10.05-1.36-15.01-2.16-3.27-.52-5.5-3.6-4.98-6.87.52-3.27,3.6-5.5,6.87-4.98,4.84.77,9.76,1.48,14.64,2.1,3.29.42,5.61,3.42,5.19,6.71-.39,3.03-2.97,5.24-5.94,5.24Zm1186.15-4.62s-.07,0-.1,0c-4.07-.07-8.17-.2-12.17-.39-3.31-.16-5.87-2.97-5.71-6.28.16-3.31,2.95-5.88,6.28-5.71,3.88.18,7.85.31,11.8.37,3.31.05,5.96,2.78,5.9,6.1-.05,3.28-2.73,5.9-6,5.9Zm24.99-.36c-3.19,0-5.85-2.52-5.99-5.74-.14-3.31,2.42-6.11,5.73-6.26,4.85-.21,9.82-.51,14.78-.89,3.3-.25,6.19,2.22,6.44,5.53.25,3.3-2.22,6.19-5.53,6.44-5.09.39-10.19.69-15.17.91-.09,0-.18,0-.27,0Zm-823.75-.5c-3.3,0-5.98-2.67-6-5.97-.02-3.31,2.65-6.01,5.97-6.03,4.9-.03,9.92-.09,14.93-.18.04,0,.07,0,.11,0,3.26,0,5.94,2.62,6,5.89.06,3.31-2.58,6.05-5.89,6.11-5.05.09-10.12.15-15.07.18h-.03Zm-25.01-.14s-.07,0-.1,0c-4.03-.07-8.09-.16-12.07-.27-3.31-.09-5.92-2.86-5.83-6.17.09-3.31,2.86-5.9,6.17-5.83,3.93.11,7.95.2,11.93.27,3.31.06,5.95,2.79,5.9,6.1-.06,3.28-2.73,5.9-6,5.9Zm-184.14-.33c-2.82,0-5.33-2-5.88-4.87-.63-3.25,1.5-6.4,4.76-7.03,3.93-.76,7.83-1.56,11.6-2.4,3.24-.72,6.44,1.33,7.16,4.56.72,3.24-1.33,6.44-4.56,7.15-3.87.86-7.88,1.68-11.92,2.46-.38.07-.76.11-1.14.11Zm1560.6-.08c-1.28,0-2.57-.41-3.66-1.25-4.72-3.65-8.74-7.92-11.61-12.38-1.8-2.78-1-6.5,1.79-8.29,2.79-1.79,6.5-.99,8.29,1.79,2.14,3.32,5.2,6.56,8.86,9.38,2.62,2.02,3.11,5.79,1.09,8.42-1.18,1.53-2.96,2.33-4.76,2.33Zm-1311.46-.33c-3.21,0-5.87-2.54-5.99-5.77-.13-3.31,2.45-6.1,5.76-6.23,4-.15,7.98-.33,11.93-.52,3.32-.17,6.12,2.39,6.28,5.7s-2.39,6.12-5.7,6.28c-4,.19-8.02.37-12.05.52-.08,0-.16,0-.24,0Zm-466.74-.37c-.42,0-.84-.04-1.27-.14-3.9-.84-7.88-1.75-11.83-2.7-3.22-.78-5.2-4.02-4.43-7.24.78-3.22,4.01-5.2,7.24-4.42,3.85.93,7.73,1.82,11.54,2.63,3.24.7,5.3,3.89,4.6,7.13-.61,2.81-3.09,4.74-5.86,4.74Zm364.75-.21c-.11,0-.22,0-.34,0-5.08-.28-10.16-.62-15.09-.99-3.3-.25-5.78-3.13-5.53-6.43.25-3.3,3.13-5.79,6.44-5.53,4.85.37,9.85.69,14.86.97,3.31.18,5.84,3.02,5.66,6.32-.18,3.19-2.83,5.67-5.99,5.67Zm823.91-.11c-.24,0-.47-.01-.71-.04-5.03-.59-10.11-1.31-15.09-2.13-3.27-.54-5.49-3.62-4.95-6.89.54-3.27,3.63-5.49,6.89-4.95,4.81.79,9.71,1.48,14.56,2.05,3.29.39,5.64,3.37,5.25,6.66-.36,3.05-2.95,5.3-5.95,5.3Zm-684.97-1.3c-3.12,0-5.76-2.42-5.98-5.58-.23-3.31,2.26-6.17,5.57-6.4,5.04-.35,10.04-.73,14.88-1.14,3.28-.27,6.2,2.18,6.48,5.48.28,3.3-2.18,6.2-5.48,6.48-4.89.41-9.95.79-15.04,1.15-.14,0-.28.01-.42.01Zm786.64-.03c-2.98,0-5.57-2.22-5.95-5.26-.41-3.29,1.92-6.29,5.21-6.7,3.93-.49,7.88-1.03,11.74-1.6,3.28-.48,6.33,1.78,6.82,5.05.49,3.28-1.78,6.33-5.05,6.82-3.95.58-7.99,1.14-12.01,1.64-.25.03-.5.05-.75.05Zm-965.46-1.89c-.23,0-.46-.01-.7-.04-4.14-.48-8.19-1-12.06-1.54-3.28-.46-5.57-3.5-5.11-6.78.46-3.28,3.5-5.57,6.78-5.11,3.77.53,7.73,1.04,11.77,1.5,3.29.38,5.65,3.36,5.27,6.65-.35,3.06-2.95,5.31-5.95,5.31Zm218.63-1.61c-3.02,0-5.62-2.27-5.96-5.35-.36-3.29,2.02-6.26,5.31-6.62,3.96-.43,7.94-.9,11.82-1.38,3.29-.4,6.28,1.93,6.69,5.22.41,3.29-1.93,6.28-5.22,6.69-3.94.49-7.97.96-11.99,1.4-.22.02-.44.04-.66.04Zm605.85-2.22c-.47,0-.94-.05-1.42-.17-3.92-.95-7.88-1.98-11.79-3.06-3.19-.89-5.06-4.19-4.18-7.39.89-3.19,4.19-5.07,7.39-4.18,3.78,1.05,7.62,2.05,11.4,2.96,3.22.78,5.2,4.02,4.42,7.24-.66,2.75-3.12,4.59-5.83,4.59Zm177.45-.19c-2.8,0-5.3-1.97-5.88-4.82-.65-3.25,1.45-6.41,4.7-7.06,4.81-.96,9.68-2.02,14.46-3.13,3.23-.75,6.45,1.26,7.2,4.49.75,3.23-1.26,6.45-4.49,7.2-4.9,1.14-9.89,2.22-14.82,3.21-.4.08-.79.12-1.19.12Zm-1073.22-.35c-2.58,0-4.96-1.68-5.74-4.27-.95-3.17.84-6.52,4.02-7.47,4.92-1.48,9.58-3.04,13.87-4.63,1.64-.61,3.37-.46,4.81.27,1.39-.88,3.14-1.19,4.85-.7,4.34,1.23,9.11,2.41,14.18,3.49,3.24.69,5.31,3.88,4.62,7.12-.69,3.24-3.88,5.31-7.12,4.61-5.33-1.14-10.36-2.38-14.96-3.68-.38-.11-.74-.25-1.08-.42-.34.22-.72.4-1.11.55-4.53,1.68-9.44,3.32-14.6,4.88-.58.17-1.16.26-1.73.26Zm1577.05-.81c-1.01,0-2.03-.25-2.96-.79-2.88-1.64-3.88-5.3-2.24-8.18,2.25-3.96,3.61-7.99,3.92-11.67.28-3.3,3.2-5.76,6.48-5.47,3.3.28,5.75,3.18,5.47,6.48-.46,5.4-2.34,11.14-5.45,16.6-1.11,1.94-3.13,3.03-5.22,3.03Zm-1866.45-.38c-.55,0-1.12-.08-1.67-.24-4.71-1.37-9.44-2.8-14.46-4.37-3.16-.99-4.92-4.36-3.93-7.52.99-3.16,4.36-4.92,7.52-3.93,4.94,1.55,9.59,2.95,14.22,4.29,3.18.92,5.01,4.25,4.09,7.43-.76,2.62-3.16,4.33-5.76,4.33Zm615.95-.93c-2.9,0-5.45-2.11-5.92-5.06-.52-3.27,1.71-6.35,4.98-6.87,4.96-.79,9.88-1.63,14.62-2.5,3.25-.6,6.39,1.56,6.98,4.82.6,3.26-1.56,6.39-4.82,6.98-4.83.89-9.84,1.74-14.9,2.55-.32.05-.64.08-.95.08Zm785.49-6.96c-2.61,0-5.02-1.72-5.77-4.36-.91-3.19.94-6.51,4.13-7.42,3.73-1.06,7.55-2.2,11.37-3.37,3.17-.98,6.53.8,7.5,3.96.98,3.17-.8,6.53-3.96,7.5-3.9,1.2-7.81,2.36-11.61,3.45-.55.16-1.1.23-1.65.23Zm-746.28-.6c-2.73,0-5.2-1.88-5.84-4.66-.74-3.23,1.27-6.45,4.5-7.19,3.86-.89,7.73-1.83,11.5-2.79,3.21-.81,6.48,1.12,7.3,4.33.82,3.21-1.12,6.48-4.33,7.3-3.87.99-7.83,1.95-11.78,2.86-.45.1-.9.15-1.35.15Zm494.58-.25c-.65,0-1.31-.11-1.96-.33-4.61-1.6-9.27-3.29-14.25-5.18-3.1-1.17-4.66-4.64-3.48-7.74,1.18-3.1,4.64-4.66,7.74-3.48,4.87,1.85,9.42,3.5,13.92,5.06,3.13,1.08,4.79,4.5,3.71,7.63-.86,2.48-3.18,4.04-5.67,4.04Zm-1187.82-3.37c-.64,0-1.29-.1-1.93-.32-3.79-1.29-7.58-2.59-11.38-3.9-3.13-1.08-4.8-4.5-3.72-7.63,1.08-3.13,4.5-4.8,7.63-3.72,3.79,1.3,7.56,2.6,11.33,3.88,3.14,1.06,4.82,4.47,3.75,7.61-.85,2.5-3.18,4.07-5.68,4.07Zm324.36-.75c-.98,0-1.97-.24-2.88-.74-4.42-2.43-8.13-5.09-11.02-7.89-2.38-2.31-2.43-6.11-.12-8.48,2.31-2.38,6.11-2.43,8.49-.12,2.12,2.06,4.95,4.07,8.43,5.98,2.9,1.59,3.97,5.24,2.37,8.15-1.09,1.99-3.15,3.11-5.26,3.11Zm39.95-1.33c-2.01,0-3.98-1.01-5.11-2.85-1.74-2.82-.87-6.52,1.95-8.26,3.44-2.12,6.3-4.29,8.5-6.43,2.38-2.31,6.17-2.26,8.48.12,2.31,2.38,2.26,6.17-.12,8.48-2.83,2.75-6.38,5.46-10.56,8.04-.98.61-2.07.9-3.15.9Zm364.59-3.89c-2.56,0-4.93-1.66-5.73-4.23-.98-3.17.8-6.53,3.96-7.5,4.64-1.43,9.25-2.93,14.08-4.57,3.14-1.06,6.54.62,7.61,3.76,1.06,3.14-.62,6.54-3.76,7.61-4.94,1.68-9.65,3.2-14.39,4.67-.59.18-1.19.27-1.77.27Zm745.83-1.04c-2.48,0-4.8-1.55-5.67-4.03-1.09-3.13.56-6.55,3.69-7.64,4.4-1.53,8.99-3.17,14.03-5.01,3.11-1.13,6.56.47,7.69,3.58,1.14,3.11-.47,6.56-3.58,7.69-5.1,1.86-9.74,3.52-14.19,5.07-.65.23-1.32.34-1.98.34Zm-324.2-3.99c-.76,0-1.54-.15-2.29-.46-3.7-1.53-7.39-3.07-11.08-4.62-3.06-1.28-4.5-4.8-3.21-7.85,1.28-3.05,4.79-4.5,7.85-3.21,3.67,1.54,7.35,3.07,11.03,4.6,3.06,1.27,4.52,4.78,3.25,7.84-.96,2.31-3.19,3.71-5.55,3.71Zm691.54-1.01c-1.3,0-2.6-.42-3.7-1.28-2.61-2.05-3.06-5.82-1.01-8.42,2.49-3.17,5.87-6.28,10.05-9.25,2.7-1.92,6.44-1.29,8.37,1.41,1.92,2.7,1.29,6.45-1.41,8.37-3.25,2.31-5.79,4.62-7.57,6.89-1.18,1.51-2.94,2.29-4.72,2.29Zm-1877.05-.03c-.65,0-1.3-.11-1.95-.33-4.66-1.6-9.36-3.19-14.14-4.78-3.14-1.05-4.84-4.44-3.8-7.59,1.05-3.14,4.44-4.85,7.59-3.8,4.81,1.6,9.55,3.21,14.24,4.82,3.13,1.07,4.8,4.49,3.73,7.62-.85,2.49-3.18,4.06-5.67,4.06Zm2258.26-3.58c-.83,0-1.68-.17-2.48-.54-3.6-1.64-7.25-3.26-10.85-4.8-3.04-1.31-4.45-4.84-3.14-7.88,1.31-3.04,4.83-4.45,7.88-3.14,3.68,1.58,7.41,3.23,11.09,4.91,3.02,1.37,4.35,4.93,2.97,7.95-1.01,2.21-3.18,3.51-5.46,3.51Zm-1456.65-3.37c-2.44,0-4.73-1.5-5.62-3.91-1.15-3.11.43-6.56,3.54-7.71,2.66-.99,5.3-1.98,7.93-2.96l3.28-1.23c3.11-1.16,6.56.42,7.72,3.52,1.16,3.1-.42,6.56-3.52,7.72l-3.27,1.22c-2.64.99-5.29,1.98-7.96,2.97-.69.25-1.39.38-2.09.38Zm745.62-1.76c-2.43,0-4.72-1.49-5.62-3.9-1.16-3.1.42-6.56,3.52-7.72,3.75-1.4,7.5-2.8,11.25-4.19,3.11-1.15,6.56.44,7.71,3.55,1.15,3.11-.44,6.56-3.55,7.71-3.74,1.38-7.47,2.77-11.21,4.17-.69.26-1.4.38-2.1.38Zm386.37-2.21c-1.33,0-2.67-.44-3.78-1.35-2.49-2.03-5.55-4.02-9.09-5.93-1.86-1-2.97-2.84-3.13-4.8-2.57.95-5.04,1.9-7.36,2.86-3.07,1.26-6.57-.2-7.83-3.26-.52-1.25-.58-2.57-.26-3.79-1.12.33-2.34.34-3.53-.04-4.36-1.39-9.1-2.73-14.11-4-3.21-.81-5.16-4.08-4.34-7.29.81-3.21,4.07-5.16,7.29-4.34,5.24,1.33,10.22,2.74,14.8,4.2,3.04.97,4.77,4.13,4,7.18,4.26-1.74,8.92-3.46,13.86-5.13,3.14-1.06,6.54.63,7.6,3.77.53,1.57.37,3.21-.32,4.59,3.8,2.11,7.17,4.35,10,6.66,2.57,2.09,2.96,5.87.87,8.44-1.19,1.46-2.92,2.21-4.66,2.21Zm-1971.58-1.52c-.58,0-1.18-.09-1.76-.27-3.83-1.18-7.67-2.32-11.4-3.41-3.18-.93-5.01-4.26-4.08-7.44.93-3.18,4.26-5.01,7.44-4.08,3.79,1.1,7.68,2.27,11.57,3.46,3.17.97,4.95,4.33,3.97,7.5-.79,2.58-3.17,4.24-5.73,4.24Zm1189.36-.72c-.75,0-1.52-.14-2.26-.44-4.98-2.03-9.5-3.82-13.83-5.49-3.09-1.19-4.63-4.66-3.44-7.76s4.67-4.63,7.76-3.44c4.39,1.69,8.98,3.51,14.03,5.57,3.07,1.25,4.55,4.75,3.3,7.82-.95,2.33-3.19,3.74-5.56,3.74Zm1072.71-4.61c-.7,0-1.41-.12-2.11-.38-4.63-1.74-9.32-3.42-13.95-5.01-3.13-1.07-4.81-4.49-3.73-7.62,1.07-3.13,4.48-4.8,7.62-3.73,4.74,1.62,9.54,3.35,14.28,5.13,3.1,1.17,4.67,4.62,3.51,7.73-.9,2.41-3.19,3.89-5.62,3.89Zm-1879.3-.71c-.68,0-1.37-.12-2.04-.36-3.12-1.13-4.73-4.56-3.61-7.68,1.81-5.01,4.79-10.09,8.61-14.67,2.12-2.55,5.91-2.89,8.45-.77,2.55,2.12,2.89,5.9.77,8.45-2.94,3.53-5.2,7.35-6.54,11.07-.88,2.44-3.19,3.96-5.64,3.96Zm491.46-1.22c-2.48,0-4.8-1.55-5.66-4.02-1.09-3.13.56-6.55,3.69-7.64,5.04-1.76,9.74-3.33,14.35-4.8,3.16-1,6.53.74,7.54,3.9,1,3.16-.74,6.53-3.9,7.54-4.51,1.44-9.1,2.97-14.04,4.69-.66.23-1.32.34-1.98.34Zm-422.13-.11c-2.35,0-4.58-1.39-5.54-3.69-1.45-3.49-3.94-7.11-7.18-10.48-2.3-2.39-2.23-6.19.16-8.48,2.39-2.3,6.18-2.23,8.48.16,4.27,4.44,7.59,9.34,9.62,14.19,1.27,3.06-.17,6.57-3.23,7.85-.75.31-1.54.46-2.31.46Zm1167.85-1.49c-2.49,0-4.82-1.57-5.68-4.06-1.07-3.14.6-6.55,3.73-7.62,5.02-1.72,9.72-3.27,14.36-4.74,3.16-1,6.53.75,7.53,3.91,1,3.16-.75,6.53-3.91,7.53-4.55,1.44-9.16,2.96-14.09,4.65-.64.22-1.3.33-1.94.33Zm-1655.52-1.16c-.49,0-.99-.06-1.49-.19-4.79-1.22-9.65-2.41-14.43-3.52-3.23-.75-5.24-3.98-4.49-7.2.75-3.23,3.98-5.24,7.2-4.49,4.87,1.13,9.81,2.33,14.68,3.58,3.21.82,5.15,4.09,4.33,7.3-.69,2.71-3.13,4.52-5.81,4.52Zm1187.5-4.67c-.62,0-1.26-.1-1.89-.31-3.78-1.25-7.57-2.45-11.26-3.55-3.18-.95-4.98-4.29-4.03-7.47s4.29-4.98,7.47-4.03c3.81,1.14,7.71,2.37,11.6,3.66,3.15,1.04,4.85,4.44,3.81,7.58-.83,2.52-3.18,4.12-5.7,4.12Zm1072.18-3.21c-.55,0-1.1-.08-1.66-.23-3.81-1.09-7.65-2.14-11.43-3.13-3.21-.83-5.13-4.11-4.3-7.32.83-3.21,4.12-5.13,7.32-4.3,3.87,1.01,7.82,2.09,11.72,3.21,3.18.91,5.03,4.24,4.11,7.42-.76,2.63-3.16,4.35-5.76,4.35Zm-2298.66-.88c-.38,0-.77-.04-1.16-.11-3.83-.75-7.76-1.48-11.69-2.18-3.26-.58-5.44-3.69-4.86-6.96.58-3.26,3.68-5.44,6.96-4.86,3.99.71,7.99,1.45,11.88,2.21,3.25.63,5.38,3.79,4.74,7.04-.56,2.86-3.07,4.85-5.88,4.85Zm986.95-.11c-2.68,0-5.12-1.8-5.81-4.52-.82-3.21,1.12-6.48,4.33-7.3,3.89-.99,7.86-1.94,11.82-2.83,3.24-.73,6.44,1.31,7.17,4.54s-1.31,6.44-4.54,7.17c-3.84.86-7.7,1.79-11.48,2.75-.5.13-1,.19-1.49.19Zm1071.6-.62c-2.67,0-5.11-1.8-5.81-4.51-.82-3.21,1.11-6.48,4.32-7.31,3.83-.98,7.81-1.95,11.83-2.87,3.23-.74,6.45,1.28,7.19,4.51.74,3.23-1.28,6.45-4.51,7.19-3.92.9-7.8,1.84-11.52,2.8-.5.13-1,.19-1.5.19Zm-325.85-1c-2.66,0-5.09-1.79-5.8-4.48-.84-3.21,1.08-6.49,4.28-7.33,3.94-1.03,7.91-2.02,11.79-2.92,3.23-.76,6.45,1.25,7.21,4.48s-1.25,6.45-4.48,7.21c-3.77.88-7.63,1.84-11.47,2.84-.51.13-1.02.2-1.53.2Zm241.31-3.34c-.36,0-.72-.03-1.09-.1-3.77-.69-7.71-1.36-11.72-2-3.27-.52-5.5-3.59-4.99-6.87.52-3.27,3.6-5.5,6.87-4.99,4.1.65,8.13,1.34,12,2.05,3.26.6,5.42,3.72,4.82,6.98-.53,2.89-3.05,4.92-5.9,4.92Zm-783.11-.8c-.44,0-.89-.05-1.33-.15-4.78-1.08-9.63-2.08-14.42-2.95-3.26-.59-5.42-3.72-4.82-6.98.59-3.26,3.72-5.42,6.98-4.82,4.96.91,9.98,1.93,14.92,3.05,3.23.73,5.26,3.95,4.52,7.18-.63,2.79-3.11,4.67-5.85,4.67Zm-1227.35-.27c-.28,0-.57-.02-.86-.06-4.87-.69-9.83-1.35-14.74-1.96-3.29-.41-5.63-3.4-5.22-6.69.41-3.29,3.42-5.61,6.69-5.22,4.99.62,10.02,1.29,14.97,1.99,3.28.47,5.56,3.51,5.09,6.79-.43,2.99-3,5.15-5.93,5.15Zm1059.53-1.51c-2.88,0-5.42-2.08-5.91-5.02-.54-3.27,1.67-6.36,4.94-6.9,4.86-.81,9.9-1.57,14.98-2.25,3.28-.44,6.31,1.85,6.75,5.14s-1.85,6.31-5.14,6.75c-4.96.67-9.89,1.42-14.63,2.2-.33.06-.66.08-.99.08Zm1239.65-.28c-.4,0-.8-.04-1.2-.12-4.85-.98-9.74-1.9-14.55-2.71-3.27-.55-5.47-3.65-4.92-6.92.55-3.27,3.65-5.47,6.92-4.92,4.94.83,9.97,1.77,14.94,2.78,3.25.66,5.35,3.83,4.69,7.07-.58,2.84-3.08,4.81-5.87,4.81Zm-167.99-.63c-2.85,0-5.38-2.04-5.9-4.94-.59-3.26,1.58-6.38,4.84-6.97,4.96-.89,10-1.73,14.97-2.49,3.28-.5,6.34,1.75,6.84,5.02.5,3.28-1.75,6.34-5.02,6.84-4.87.75-9.8,1.57-14.66,2.44-.36.06-.72.1-1.07.1Zm-325.95-1.01c-2.87,0-5.4-2.06-5.91-4.98-.56-3.27,1.63-6.37,4.9-6.93,4.93-.85,9.99-1.62,15.01-2.31,3.28-.44,6.31,1.85,6.75,5.14.45,3.28-1.85,6.31-5.14,6.75-4.89.67-9.8,1.42-14.6,2.24-.34.06-.69.09-1.02.09Zm168.53-.94c-.24,0-.47-.01-.71-.04-4.8-.57-9.79-1.11-14.83-1.61-3.3-.33-5.71-3.26-5.38-6.56.33-3.3,3.26-5.7,6.56-5.38,5.11.51,10.18,1.06,15.06,1.64,3.29.39,5.64,3.37,5.25,6.67-.36,3.05-2.95,5.29-5.95,5.29Zm-2013.46-.3c-.19,0-.38,0-.57-.03-2.3-.22-4.63-.42-6.97-.63-1.65-.14-3.28-.28-4.9-.41-3.3-.27-5.77-3.16-5.5-6.46.26-3.3,3.17-5.78,6.46-5.5,1.64.13,3.29.27,4.96.41,2.38.2,4.73.42,7.07.63,3.3.31,5.72,3.24,5.41,6.54-.29,3.11-2.91,5.44-5.97,5.44Zm1227.66-1.68c-.22,0-.44-.01-.67-.04-3.86-.43-7.81-.8-11.74-1.11-3.3-.26-5.77-3.15-5.51-6.45.26-3.3,3.17-5.77,6.45-5.51,4.06.32,8.13.71,12.12,1.15,3.29.37,5.67,3.33,5.3,6.63-.34,3.07-2.94,5.34-5.96,5.34Zm-88.8-.21c-3.07,0-5.68-2.34-5.97-5.45-.3-3.3,2.13-6.22,5.43-6.52,4.08-.38,8.15-.7,12.1-.97,3.28-.23,6.17,2.27,6.4,5.57.23,3.31-2.27,6.17-5.57,6.4-3.85.27-7.83.59-11.83.95-.19.02-.37.03-.56.03Zm-1175.75-.81c-.11,0-.21,0-.32,0-4.93-.26-9.94-.49-14.89-.67-3.31-.12-5.9-2.91-5.77-6.22.12-3.31,2.89-5.89,6.22-5.77,5.01.19,10.09.41,15.08.68,3.31.18,5.85,3,5.67,6.31-.17,3.2-2.82,5.68-5.99,5.68Zm610.18-.26c-.47,0-.96-.06-1.44-.17-1.74-.43-3.42-.65-4.99-.65h0c-.46,0-.92.02-1.37.06-.86.07-1.75.22-2.65.44-3.22.79-6.46-1.2-7.24-4.42s1.2-6.46,4.42-7.24c1.5-.36,3-.61,4.48-.73.79-.07,1.58-.1,2.37-.1h.01c2.54,0,5.18.33,7.86.99,3.22.79,5.18,4.04,4.39,7.26-.67,2.74-3.12,4.57-5.82,4.57Zm1726.09-.36c-.22,0-.44-.01-.66-.04-3.92-.43-7.89-.81-11.77-1.13-3.3-.27-5.76-3.17-5.49-6.47.27-3.3,3.19-5.76,6.47-5.49,4,.33,8.08.72,12.11,1.16,3.29.36,5.67,3.33,5.31,6.62-.34,3.07-2.94,5.34-5.96,5.34Zm-325.83-.1c-.14,0-.28,0-.42-.01-4.02-.28-8.03-.53-11.93-.75-3.31-.18-5.84-3.01-5.66-6.32.18-3.31,3.01-5.83,6.32-5.66,3.96.22,8.03.47,12.1.76,3.31.23,5.8,3.1,5.57,6.4-.22,3.16-2.86,5.58-5.98,5.58Zm236.98-.04c-3.03,0-5.63-2.28-5.96-5.36-.35-3.29,2.03-6.25,5.33-6.6,4.1-.44,8.11-.81,11.93-1.12h.11c3.3-.32,6.22,2.12,6.53,5.41s-2.11,6.22-5.41,6.53l-.29.02c-3.7.3-7.61.66-11.6,1.09-.22.02-.43.03-.64.03Zm-325.95-.23c-3.1,0-5.72-2.38-5.97-5.53-.26-3.3,2.2-6.19,5.51-6.46,3.98-.32,8.06-.59,12.11-.81,3.31-.17,6.14,2.36,6.32,5.67.18,3.31-2.36,6.14-5.67,6.32-3.95.21-7.92.48-11.81.79-.16.01-.32.02-.48.02Zm-708.77-.27c-3.26,0-5.94-2.62-6-5.89-.06-3.31,2.58-6.05,5.89-6.11,5.17-.09,10.26-.1,15.2-.02,3.31.05,5.96,2.78,5.9,6.09-.05,3.28-2.73,5.91-6,5.91-.03,0-.06,0-.1,0-4.81-.07-9.75-.07-14.79.02-.04,0-.07,0-.11,0Zm-1252.68,0h-.06c-4.39-.04-8.37-.05-11.92-.03h-.02c-3.3,0-5.99-2.67-6-5.98-.01-3.31,2.67-6.01,5.98-6.02,3.59-.01,7.63,0,12.08.03,3.31.03,5.97,2.74,5.94,6.06-.03,3.29-2.71,5.94-6,5.94Zm2013.36-1.17s-.08,0-.12,0c-4.99-.1-9.99-.13-14.84-.1h-.04c-3.3,0-5.98-2.66-6-5.96-.02-3.31,2.65-6.02,5.96-6.04,4.95-.03,10.06,0,15.15.1,3.31.06,5.95,2.8,5.88,6.12-.06,3.27-2.74,5.88-6,5.88Zm325.97-.61s-.08,0-.13,0c-4.92-.1-10.01-.11-14.78-.03-.03,0-.07,0-.1,0-3.27,0-5.94-2.62-6-5.9-.06-3.31,2.59-6.04,5.9-6.1,4.91-.08,10.15-.07,15.23.03,3.31.07,5.94,2.81,5.87,6.12-.07,3.27-2.74,5.88-6,5.88Z"/>
    </g>
  </g>
</svg>